<?xml version="1.0" encoding="utf-8"?>
<!-- Generator: Adobe Illustrator 23.0.3, SVG Export Plug-In . SVG Version: 6.00 Build 0)  -->
<svg version="1.1" id="Calque_1" xmlns="http://www.w3.org/2000/svg" xmlns:xlink="http://www.w3.org/1999/xlink" x="0px" y="0px"
	 viewBox="0 0 120 120" style="enable-background:new 0 0 120 120;" xml:space="preserve">
<style type="text/css">
	.st0{fill:none;}
	.st1{fill:#FFFFFF;}
	.st2{fill:none;stroke:#1D1D1B;stroke-width:0.7;stroke-miterlimit:1;}
</style>
<g>
	<g>
		<g>
			<rect x="-120.7" y="119.2" class="st0" width="361.3" height="107.8"/>
		</g>
	</g>
	<g>
		<rect y="0" class="st1" width="120" height="120"/>
		<g>
			<g>
				<line class="st2" x1="15" y1="91.3" x2="105" y2="91.3"/>
			</g>
		</g>
		<g>
			<g>
				<path class="st2" d="M23,89.6c0-0.9,0.1-1.7,0.1-2.6c0-0.6,0.3-1.5,0-2c0.3-0.3,0.1-1.1,0.1-1.5c0-0.7,0-1.3,0-2
					c0-1.3,0-2.6,0.1-3.9c0-2.7,0.1-5.3,0.1-8c0.1-4,0.2-8,0.3-12c0.1-3.6,0.4-7.2,0.2-10.8c-0.1-2.4,0-3.2,0-5.6"/>
				<path class="st2" d="M102.1,55.5c0,3.5-0.1,4.8,0,8.4c0.1,4.2,0.2,8.3,0.3,12.5c0.1,3.9-0.2,11,0.2,14.9"/>
				<path class="st2" d="M19.2,45.9c2.6-2.5,5.1-5.1,7.6-7.6c1.8-1.9,3.2-4,4.9-5.9c1.6-1.8,3.6-3.1,5.3-4.7
					c1.4-1.2,2.6-2.6,3.9-3.9c2.6-2.5,5.3-4.9,8-7.2c4.5-3.8,9.2-8.8,14.1-12v0.3c0,12.1,0.4,25.2,0.4,37.3c0,3.5,0.4,7,0.3,10.5
					c-0.2,8.2-0.6,16.2-0.4,24.3c0,1,0.6,14.3-0.3,14.3"/>
				<path class="st2" d="M63.2,16.8c3.7,2.8,7.2,5.5,11.1,8c3.5,2.3,6.2,5.7,9.2,8.6c1.5,1.4,3.2,2.7,4.7,4.2
					c0.2,0.2,0.3,0.3,0.5,0.5c1.4,1.5,2.8,3.1,4.2,4.6c4.9,5.1,9.6,9,13.8,14.6"/>
				<path class="st2" d="M32.6,50.3c0.2-2.5,0.2-5.1-0.1-7.6"/>
				<path class="st2" d="M32.6,65.8c0.4-2.9-0.1-1.9,0-4.8"/>
				<path class="st2" d="M43.6,48.9c0-2.8,0-2.9,0-5.7"/>
				<path class="st2" d="M44,36.1c0-3-0.3-2.5-0.2-5.7"/>
				<path class="st2" d="M72.8,51.2c0.1-0.6-0.2-5.1-0.2-5.7"/>
				<path class="st2" d="M44.6,66.9v-0.3c0-2.8-0.1-5.6-0.1-8.4"/>
				<path class="st2" d="M73.1,81.9c0.1-3.3-0.1-1.9,0.1-5.3"/>
				<path class="st2" d="M93.3,82.3c0-2.8-0.2-4.4,0-7.2"/>
				<path class="st2" d="M74.8,66.3c0,0,0-1.5,0-1.7c0-2.3-0.2-4.6-0.1-6.9"/>
				<path class="st2" d="M83.9,48.9c0-0.6-0.2-6.5-0.2-7.1"/>
				<path class="st2" d="M84.7,82.2c0.1-3.4-0.2-4.4,0.1-7.8"/>
				<path class="st2" d="M85,66.1c0,0,0-2.5,0-2.7c0-2.3,0.4-2.6,0.5-4.9"/>
				<path class="st2" d="M94.4,58.4c0,2.9,0,4,0,6.9"/>
				<path class="st2" d="M33.8,80.9c0-1.1-0.6-5.9,0-7.7"/>
				<path class="st2" d="M44.5,80.8c0-1.7,0-0.1,0-1.9c0-0.9,0-1.8,0-2.7c0-0.5,0.5,0.6,0.5,0.1"/>
				<path class="st2" d="M53.5,50.3c0-2.6,0.2-5.4-0.2-7.9"/>
				<path class="st2" d="M53.4,35.6c-0.1-3.2-0.1-5,0-8.2"/>
				<path class="st2" d="M72.3,37.2c-0.1-3.2-0.3-3,0-6.8"/>
				<path class="st2" d="M54.4,66.9v-1.6c0-2.8,0-4.3,0-7.1"/>
				<path class="st2" d="M54.3,80.8c0-1.7,0-0.1,0-1.9c0-1.6-0.2-3.9-0.2-5.6"/>
			</g>
			<path class="st2" d="M63.8,93c0.1,0.1,0.3,0.3,0.4,0.4"/>
			<path class="st2" d="M35.8,94.7c-0.6,0.3-1.2,0.6-1.7,0.8"/>
			<path class="st2" d="M56,100.1c-0.1,0.3,0.1,0.7,0.4,0.8"/>
		</g>
		<path class="st2" d="M20,88.6c-0.1,0.2-0.3,0.4-0.4,0.6"/>
		<path class="st2" d="M11.5,89c-0.3,0.1-0.7,0.3-1,0.4"/>
	</g>
</g>
</svg>
