<?xml version="1.0" encoding="utf-8"?>
<!-- Generator: Adobe Illustrator 23.0.3, SVG Export Plug-In . SVG Version: 6.00 Build 0)  -->
<svg version="1.1" xmlns="http://www.w3.org/2000/svg" xmlns:xlink="http://www.w3.org/1999/xlink" x="0px" y="0px"
	 viewBox="0 0 120 120" style="enable-background:new 0 0 120 120;" xml:space="preserve">
<style type="text/css">
	.st0{fill:#FFFFFF;}
	.st1{fill:none;stroke:#1D1D1B;stroke-width:0.7;stroke-miterlimit:1;}
	.st2{fill:none;stroke:#1D1D1B;stroke-width:0.7;stroke-miterlimit:10;}
	.st3{fill:#1D1D1B;stroke:#1D1D1B;stroke-width:0.7;stroke-miterlimit:1;}
</style>
<g id="Calque_2">
</g>
<g id="Calque_1">
	<rect class="st0" width="120" height="120"/>
	<g>
		<rect class="st0" width="120" height="120"/>
		<g>
			<g>
				<line class="st1" x1="15" y1="91.3" x2="105" y2="91.3"/>
			</g>
		</g>
		<g>
			<g>
				<g>
					<path class="st1" d="M42,46.4c-12,7.8-16.4,23.2-11.8,37.8c1.9,6,5.5,11.3,10.2,14.7c2.8,2,7.9,5.2,11.3,3.9
						c0.3,0.3,0.5,0.6,0.6,1c10.9,2.8,26.1-0.2,32.7-9.9c3.4-5,5.2-8.5,6.1-14.9c1.2-8.6-1.1-18.3-6-25.4c-0.7-1.1-1.5-2.1-2.5-2.9
						c-1.9-1.5-4.3-2-6.2-3.4c-1-0.7-1.8-1.6-2.7-2.3C65.3,38,50.5,40.9,42,46.4z"/>
				</g>
				<path class="st1" d="M91.3,86.7c0.2,0.9,0,0.4,0.6,1"/>
				<path class="st1" d="M94.5,105.1c0,0.5,0,1.1-0.1,1.6"/>
				<path class="st1" d="M24.8,59.7c-0.6,1.6-1.2,3.3-1.9,4.9c-2.4,5.9-4,12.5-7.2,18.1c-0.3,0.4-0.5,0.9-1,1.2
					c-1.1,0.7-3.2-0.3-3.6-1.6c-0.4-1.3,0.1-3.5,0.5-4.8c2.2-6,8.1-15.5,9.5-21.7c1.1-4.7,0.3-7.6,0.7-12.3c0.3-3.9,0.3-5.4,2-9
					c3.2-6.6,8.5-12.9,15.5-15.8c-0.3,1.4-1.7,5.6-1.9,6.5c-0.8,2.4-1.6,4.9-2.4,7.3c-1.7,4.9-3.6,9.8-5.5,14.7
					C27.9,51.3,26.4,55.5,24.8,59.7z"/>
				<g>
					<path class="st1" d="M82,16.9L84.2,28c1.1,4.7,1.4,4.3,4.7,7.7c0.9,1,1.6,2,2.2,3.2c0.6,1.2,1.2,2.4,1.4,3.7
						c2.3,15.8,2.6,20.9,4.8,36.7c0.2,1.5,0.4,3,1.3,4.2c0.8,1.2,2.4,2,3.7,1.4c1.6-0.8,1.7-3,1.6-4.9c-0.6-8.5-0.8-10.4-3-18.6
						c-1.4-5.3-1.6-6.5-2.8-11.8c-0.9-3.9-2.7-10-1.3-13.9c1.1-3.1,1.2-4.3,0.4-8.2c-0.8-4-2.1-10.3-3.4-14.5"/>
					<path class="st1" d="M93.7,29.9c-1.8-6.3-2.4-9.3-4.4-16"/>
					<path class="st1" d="M89.7,31.5C88,26.4,87.8,21.5,85.9,16"/>
				</g>
				<path class="st1" d="M50.3,53c0,0.7,0,1.4,0,2.2"/>
				<path class="st1" d="M33.1,26.5C32.2,25.3,33.9,27.6,33.1,26.5"/>
				<path class="st1" d="M34.4,8.7c-0.5,0.6-1.1,1.1-1.6,1.7"/>
			</g>
			<path class="st1" d="M79,31.4c0.2,0.2,0.4,0.4,0.5,0.5"/>
			<path class="st1" d="M82.2,36.7c0.2,0,0.4,0,0.5,0"/>
		</g>
	</g>
</g>
</svg>
