<?xml version="1.0" encoding="utf-8"?>
<!-- Generator: Adobe Illustrator 23.0.3, SVG Export Plug-In . SVG Version: 6.00 Build 0)  -->
<svg version="1.1" xmlns="http://www.w3.org/2000/svg" xmlns:xlink="http://www.w3.org/1999/xlink" x="0px" y="0px"
	 viewBox="0 0 110 110" style="enable-background:new 0 0 110 110;" xml:space="preserve">
<style type="text/css">
	.st0{display:none;}
	.st1{display:inline;fill:#FFFFFF;}
	.st2{display:inline;fill:none;}
	.st3{display:inline;fill:none;stroke:#D6E8CF;stroke-width:0.1;stroke-miterlimit:10;}
	.st4{display:inline;}
	.st5{fill:none;stroke:#D6E8CF;stroke-width:0.1;stroke-miterlimit:10;}
	.st6{fill:none;stroke:#D6E8CF;stroke-width:0.1;stroke-miterlimit:10;stroke-dasharray:1.9556,1.9556;}
	.st7{fill:none;}
	.st8{fill:none;stroke:#000000;stroke-width:0.7;stroke-miterlimit:1;}
	.st9{fill:#E30613;}
	.st10{font-family:'Agipo-Regular';}
	.st11{font-size:99.4132px;}
	.st12{letter-spacing:-4;}
	.st13{letter-spacing:-5;}
	.st14{letter-spacing:-6;}
	.st15{fill:none;stroke:#000000;stroke-width:0.7;stroke-miterlimit:10;}
	.st16{fill:#1D1E1B;stroke:#000000;stroke-width:0.7;stroke-miterlimit:1;}
	.st17{fill:none;stroke:#000000;stroke-width:0.7;stroke-linecap:round;stroke-linejoin:round;stroke-miterlimit:1;}
</style>
<g id="Calque_2" class="st0">
</g>
<g id="Calque_3" class="st0">
</g>
<g id="GUIDELINES">
	<rect x="5" y="5" class="st7" width="100" height="100"/>
	<g>
		<g>
			<line class="st8" x1="17.5" y1="81.1" x2="92.5" y2="81.1"/>
		</g>
	</g>
</g>
<g id="Calque_7" class="st0">
	<g class="st4">
		<g>
			<g>
				<g>
					<path d="M-26.1,9.7h18.7c14.7,0,27.2,7.4,27.2,22c0,15.5-13.4,22.6-28.2,22.6h-7.8v27.2h-9.9V9.7z M-16.3,45.8l7.9-0.1
						c6.7,0,17.8-2.4,17.8-14.1c0-11.1-10.8-13.8-16.6-13.8l-9-0.1V45.8z"/>
					<path d="M104.4,66.6c0,4.1,2.8,9,9.9,9c5.6,0,9.3-2.9,9.3-7.4c0-4.3-3.6-6.5-10.7-8.4c-10.4-2.7-17.8-7-17.8-15.2
						c0-9,7.6-14.4,18.3-14.4c9.3,0,17.4,5.4,17.9,14.9h-9.4c-0.3-5.1-4.1-8.1-8.7-8.1c-4.1,0-8.7,1.8-8.7,6.9c0,4.3,4,6.4,11.4,8.1
						c10.7,2.5,17.5,7,17.5,15.3c0,9.5-8.5,15.3-19.4,15.3c-9.1,0-18.7-4.9-19.2-16.1H104.4z"/>
				</g>
			</g>
		</g>
		<g>
			<g>
				<g>
					<g>
						<g>
							<g>
								<line class="st8" x1="-9.8" y1="81.1" x2="92.5" y2="81.1"/>
							</g>
						</g>
					</g>
				</g>
			</g>
		</g>
	</g>
</g>
<g id="Calque_7_-_copie" class="st0">
	<g class="st4">
		<g>
			<g>
				<text transform="matrix(1 0 0 1 -169.4067 81.4536)"><tspan x="0" y="0" class="st9 st10 st11 st12">Co</tspan><tspan x="117.5" y="0" class="st9 st10 st11 st13">ni</tspan><tspan x="183" y="0" class="st9 st10 st11 st14">   </tspan><tspan x="241.5" y="0" class="st9 st10 st11 st14"> </tspan><tspan x="260.4" y="0" class="st9 st10 st11 st14">n</tspan><tspan x="308.8" y="0" class="st9 st10 st11 st13">che</tspan></text>
			</g>
		</g>
	</g>
</g>
<g id="Calque_6">
</g>
<g id="Calque_1">
	<g>
		<path class="st8" d="M59.7,70.5c-0.9,1.5-0.3,3.3,1,4.5c0.6,0.5,1.2,0.9,1.9,1.3c0.5,0.4,1,0.8,1.4,1.3c0.3,0.3,0.5,0.7,0.9,0.9
			c0.3,0.2,0.7,0.3,1,0.4c2.3,0.6,3.4,0.8,5.6,0.1c1.8-0.5,3.7-1.2,5.2-2.3c0.6-0.4,4.8-3.7,4.6-4c1.3-1.8,2.6-3.3,3.3-5.5
			c-0.1,0.1-0.3,0.2-0.4,0.3c0.9-1.6,1.1-3.5,2.4-4.8c0.8-0.8,2-1.1,2.8-1.9c0.8-0.7,1.2-1.9,1-2.9c-0.1-0.5-0.3-0.9-0.4-1.4
			c-0.4-1.5,0-3,0.2-4.5c0.2-1.6,0.3-3.3,0.3-4.9c0-3.4-0.8-6.5-1.3-9.9c-0.3-2.2,0.8-5.2-0.8-7c-0.8-1-1.9-1.1-3-1.3
			c-0.8-0.2-1-1.2-1.3-2c-0.3-0.8-0.7-1.5-1.1-2.2c-0.4-0.7-0.9-1.4-1.6-1.7c-0.2-0.1-0.5-0.1-0.7-0.3c-0.8-0.4-1.4-1.4-2.2-2
			c-1.1-0.9-2.1-1.7-3.3-2.5c-2.2-1.5-4.6-2.7-7.2-3.6c-7.4-2.6-15.5-2-22.9,0.5c-0.8,0.3-2.1,0.4-2.7,0.9c-1,0.6-1.3,1.9-1.9,2.8
			C40.1,19.4,39,20,38,20.6c-1.2,0.7-2.4,1.4-3.7,2c-0.7,0.3-1.4,0.5-1.9,1c-0.6,0.5-1.1,1.1-1.5,1.8c-0.5,0.7-0.9,1.4-1.4,2
			c-0.1,0.1-0.1,0.2-0.2,0.3c-0.3,0.4-0.6,0.9-1.1,1.2c-0.4,0.3-1,0.4-1.5,0.6c-0.7,0.3-4.1,3.3-2.4,3.8c-0.2,0-0.4,0-0.5,0
			c-0.3,0-1.1,4.8-1.1,5.5c-0.1,2.4,0,4.9-0.5,7.4c-0.2,1.1-0.9,2.6-0.7,3.7c0,0.2,0.1,0.4,0.1,0.6c-0.1,0.6-0.9,1-0.8,1.5
			c0,0.2,0.1,0.3,0.2,0.4c0.3,0.8-0.4,2.4-0.3,3.4c0.1,2.1,0.8,4.2,1.5,6.1c0.6,1.6,1.3,3.2,2.6,4.3c1,0.9,2.3,1.3,3.4,2.1
			c1,0.7,1.9,1.6,2.8,2.4c-0.8,1.3,0.7,0.9,1.4,1.3c0.8,0.4,0.9,1,1.3,1.8c1.1,2.2,3.2,3.3,5.7,2.5c2.6-0.8,5.4,0.8,8,1.6
			c2.9,0.9,5.8,1.8,8.8,2.5c1.3,0.3,2.7,0.6,4.1,0.6c1.6,0,3.2-0.3,4.8-0.7c1.6-0.4,3.7-0.8,5.3-1.2"/>
		<path class="st8" d="M90.6,48.9c-1.1-0.1-1.6-1-2.1-1.9c-0.9-1.6-1.9-3.1-2.8-4.7c-0.9-1.6-2.3-3.3-4.2-3.3
			c1.2-3.4-1.1-7.5-4.8-8.6c-0.7-0.2-1.4-0.3-2.1-0.5c-1.3-0.4-2.4-1.3-3.5-2.1c-1.1-0.8-2.1-1.6-3.2-2.4c-0.4-0.3-0.7-0.6-0.9-0.9
			c-0.2-0.3-0.2-0.7-0.3-1c-0.5-1.5-2.1-2.5-3.1-3.7c-0.4-0.4-0.7-1-0.5-1.5c0.1-0.3,0.4-0.4,0.7-0.6c2.4-1.3,5.3-0.2,8.1-0.4
			c1.1-0.1,2.5,0,3.5,0.5"/>
		<path class="st8" d="M36.3,61.5c-3.2-0.8-2.7-5.2-7.1-4.8c-0.3,0-0.6,0.1-0.9,0c-0.2-0.1-0.4-0.3-0.6-0.5c-1.7-2-2.5-3.3-2.4-6"/>
		<path class="st8" d="M68.9,65c-0.3,0.5-0.6,0.9-1.1,1.3c-0.4,0.3-0.9,0.5-1.4,0.8c-2.4,1-4.6,2.2-6.8,3.5c-1.6-2.9-3.8-1.6-6-3
			c-0.3-0.2-0.6-0.5-1-0.7c-0.4-0.2-0.9-0.4-1.4-0.5"/>
		<path class="st8" d="M32.1,32.7c0.4-0.2,0.9-0.3,1.3-0.7c0.5-0.5,0.6-1.1,0.9-1.8c0.2-0.6,1.6-1.3,1.5-1.8c0.2,0,0.3-0.1,0.5-0.1
			c1.9-0.6,3.5-1,5.7-0.9"/>
		<path class="st8" d="M41,18.1c-0.3,1.5-1.4,4-2.3,5.3c-0.2,0.2-0.3,0.5-0.5,0.7c-0.2,0.2-0.5,0.4-0.7,0.6
			c-0.9,0.8-1.8,2.7-1.9,3.9"/>
		<path class="st8" d="M27.3,56.1c-0.6,0.4-1.5-0.5-2.1-0.2c-0.6,0.3-1.2,0.7-1.4,1.3c-0.1,0.3-0.2,0.7-0.4,1
			c-0.5,0.7-1.8,0.6-2.2,1.3"/>
		<path class="st8" d="M81.5,38.9c-0.3,0.6-0.1,1-0.4,1.6c-0.4,0.8-0.8,1.7-1.5,2.3c-0.9,0.8-2.2,1.1-3.1,2
			c-0.5,0.5-1.7,1.7-2.5,1.6"/>
		<path class="st8" d="M41.6,48.6c0.3-1,0.6-2.2,1.5-2.9c0.3-0.3,0.7-0.5,1.1-0.6c1.6-0.7,3.4-1.2,5-0.7c1.1,0.3,2,1,2.8,1.7
			c1.2,1.1,2.3,2.4,2.2,3.9"/>
		<path class="st8" d="M83.1,63.4c0,0.1,0,0.1,0,0.2"/>
	</g>
	<path class="st8" d="M45,73.7c0.1,0.1,0.1,0.1,0.2,0.2"/>
	<path class="st8" d="M47.4,83.6c0.2,0.1,0.3,0.1,0.5,0.2"/>
	<path class="st8" d="M56.2,87.3c0.2,0,0.3,0,0.5,0"/>
	<path class="st8" d="M53.7,75.5c0.2,0.3,0.4,0.6,0.7,0.9"/>
	<path class="st8" d="M67.9,80.6c0.4,0,0.9,0,1.3,0"/>
	<path class="st8" d="M71.6,83.7c0,0.1,0,0.3,0,0.4"/>
</g>
<g id="Calque_4">
</g>
</svg>
