<?xml version="1.0" encoding="utf-8"?>
<!-- Generator: Adobe Illustrator 23.0.3, SVG Export Plug-In . SVG Version: 6.00 Build 0)  -->
<svg version="1.1" xmlns="http://www.w3.org/2000/svg" xmlns:xlink="http://www.w3.org/1999/xlink" x="0px" y="0px"
	 viewBox="0 0 110 110" style="enable-background:new 0 0 110 110;" xml:space="preserve">
<style type="text/css">
	.st0{display:none;}
	.st1{display:inline;fill:#FFFFFF;}
	.st2{display:inline;fill:none;}
	.st3{display:inline;fill:none;stroke:#D6E8CF;stroke-width:0.1;stroke-miterlimit:10;}
	.st4{display:inline;}
	.st5{fill:none;stroke:#D6E8CF;stroke-width:0.1;stroke-miterlimit:10;}
	.st6{fill:none;stroke:#D6E8CF;stroke-width:0.1;stroke-miterlimit:10;stroke-dasharray:1.9556,1.9556;}
	.st7{fill:none;}
	.st8{fill:none;stroke:#000000;stroke-width:0.7;stroke-miterlimit:1;}
	.st9{fill:#E30613;}
	.st10{font-family:'Agipo-Regular';}
	.st11{font-size:99.4132px;}
	.st12{letter-spacing:-4;}
	.st13{letter-spacing:-5;}
	.st14{letter-spacing:-6;}
	.st15{fill:none;stroke:#000000;stroke-width:0.7;stroke-miterlimit:10;}
	.st16{fill:#1D1E1B;stroke:#000000;stroke-width:0.7;stroke-miterlimit:1;}
	.st17{fill:none;stroke:#000000;stroke-width:0.7;stroke-linecap:round;stroke-linejoin:round;stroke-miterlimit:1;}
</style>
<g id="Calque_2" class="st0">
</g>
<g id="Calque_3" class="st0">
</g>
<g id="GUIDELINES">
	<rect x="5" y="5" class="st7" width="100" height="100"/>
	<g>
		<g>
			<line class="st8" x1="17.5" y1="81.1" x2="92.5" y2="81.1"/>
		</g>
	</g>
</g>
<g id="Calque_7" class="st0">
	<g class="st4">
		<g>
			<g>
				<g>
					<path d="M-26.1,9.7h18.7c14.7,0,27.2,7.4,27.2,22c0,15.5-13.4,22.6-28.2,22.6h-7.8v27.2h-9.9V9.7z M-16.3,45.8l7.9-0.1
						c6.7,0,17.8-2.4,17.8-14.1c0-11.1-10.8-13.8-16.6-13.8l-9-0.1V45.8z"/>
					<path d="M104.4,66.6c0,4.1,2.8,9,9.9,9c5.6,0,9.3-2.9,9.3-7.4c0-4.3-3.6-6.5-10.7-8.4c-10.4-2.7-17.8-7-17.8-15.2
						c0-9,7.6-14.4,18.3-14.4c9.3,0,17.4,5.4,17.9,14.9h-9.4c-0.3-5.1-4.1-8.1-8.7-8.1c-4.1,0-8.7,1.8-8.7,6.9c0,4.3,4,6.4,11.4,8.1
						c10.7,2.5,17.5,7,17.5,15.3c0,9.5-8.5,15.3-19.4,15.3c-9.1,0-18.7-4.9-19.2-16.1H104.4z"/>
				</g>
			</g>
		</g>
		<g>
			<g>
				<g>
					<g>
						<g>
							<g>
								<line class="st8" x1="-9.8" y1="81.1" x2="92.5" y2="81.1"/>
							</g>
						</g>
					</g>
				</g>
			</g>
		</g>
	</g>
</g>
<g id="Calque_7_-_copie" class="st0">
	<g class="st4">
		<g>
			<g>
				<text transform="matrix(1 0 0 1 -169.4067 81.4536)"><tspan x="0" y="0" class="st9 st10 st11 st12">Co</tspan><tspan x="117.5" y="0" class="st9 st10 st11 st13">ni</tspan><tspan x="183" y="0" class="st9 st10 st11 st14">   </tspan><tspan x="241.5" y="0" class="st9 st10 st11 st14"> </tspan><tspan x="260.4" y="0" class="st9 st10 st11 st14">n</tspan><tspan x="308.8" y="0" class="st9 st10 st11 st13">che</tspan></text>
			</g>
		</g>
	</g>
</g>
<g id="Calque_6">
</g>
<g id="Calque_1">
	<g>
		<g>
			<g>
				<path class="st8" d="M38.6,28.6c-2,0.9-5.7,1.5-7.8,1c0.5,0,1.1,0.1,1.6,0.3c-3.5-0.2-7.2-1.3-9.8-3.7c1.7,1.6,2.9,3.6,3.8,5.7
					c1,2.2,1.3,4.6,0.7,6.9c-0.1,0.3-0.2,0.6-0.2,1c0,0.2,0,0.3-0.1,0.5c-0.1,0.2-0.3,0.4-0.4,0.5c-0.2,0.3-0.3,0.6-0.5,0.8
					c0,0,0,0.1-0.1,0.1c-0.9,1.2-2.9,2.1-4.2,2.5C19.8,44.8,18,45,16.3,45c1.5,0,2.9,1.1,3.1,2.6c0.4,2.9-4.3,4.5-6.5,4.9
					c1.8,0,3.6,0.5,5.2,1.3c0.9,0.4,1.8,0.9,2.6,1.5c0.4,0.3,0.8,0.6,1.2,0.9c0.4,0.3,0.5,0.6,0.8,1c0.1,0.2,0.4,0.3,0.5,0.4
					c0.8,0.6,1.2,2.3,1.1,3.3c-0.1,0.6-0.3,1.2-0.6,1.7c-0.2,0.3-1.1,1.6-1.5,1.6c1.7,0.1,3.2,0.5,3.9,1.2
					c2.7,2.5,1.4,10.3-1.7,11.9c-0.3,0.2-0.7,0.6-0.4,0.9c4.5-2,8.7-4.2,13.7-2.2c1,0.4,1.9,0.9,2.9,1.3c1,0.5,1.3,1.5,1.9,2.4
					c0.7,0.9,1.2,2,1.5,3c0.9,2.8,0.6,5.8-0.3,8.5c0.9-2.6,3-4.5,5.6-5.3c1.3-0.4,2.9-0.7,4.2-0.5c1.9,0.3,3.9,0.6,5.5,1.5
					c1.6,0.8,3.1,2.1,4.4,3.4c1.2,1.3,2.2,2.8,2.7,4.5c-1.8-6.2,0.9-8.3,3.9-4.5c-0.8-1.5-1-3.3-0.7-5c0.3-1.7,1.1-2.8,1.9-4.2
					c0.3-0.5,0.9-0.8,1.3-1.2c0.2-0.2,0.4-0.5,0.6-0.7c0.9-1,2.8-1.5,4.1-1.6c1.6-0.1,3.2,0.5,4.5,1.5c-4.7-3.4-2.6-8.1,1.6-8.5
					c2.6-0.3,5.3,0.7,7.6,1.8c-2.2-2.1-3.5-4.7-4.5-7.5c-0.1-0.4-0.2-0.8-0.2-1.2c-0.1-0.8-0.3-1.5-0.3-2.3c0-0.5,0-0.9,0.1-1.4
					c0-0.3,0.1-0.7,0.1-1c0.1-1.5,0.5-2.8,1.3-4.1c1-1.7,2.4-3.6,3.9-4.9c1.6-1.3,3.6-2.3,5.6-3c-2.9,0.9-9.7,1-11.8-1.8
					c-2.8-3.8,2.3-6.7,5.6-9.6c-1.9,1.2-5.4,3.5-7.8,2.3c-2.1-1-1.9-4.5-1.3-6.4c0.2-0.6,0.4-1.1,0.8-1.6c0.3-0.5,0.4-1,0.6-1.5
					c0.3-0.8,0.8-1.3,1.2-2c0.5-0.8,1-1.6,1.5-2.4c1.1-1.5,2.4-2.9,3.8-4.1c-4.5,3.1-12,8.1-15.3,5.7c-2.2-1.6-1.9-4.7-0.5-7.8
					c-2.9,3.4-8.5,8-12,3.1c-2.2-3.2-2.8-9.7-2.9-13.6c0.3,4.3,0.1,11.6-3.3,14.7c-0.7,0.6-1.7,1.5-2.7,1.5c-0.3,0-0.6-0.1-1-0.1
					c-0.1,0-0.2,0-0.4,0c-0.1,0-0.2-0.1-0.3-0.1c-3.6-1.9-6.5-5.8-7.2-9.9c0.4,2.5,0.1,5-0.3,7.5c0,0.3-0.1,0.6-0.1,0.8
					C42.9,24.8,41.6,27.2,38.6,28.6z"/>
			</g>
			<path class="st8" d="M91.8,27.6c0.5-0.5,1-1,1.5-1.4"/>
			<path class="st8" d="M90.6,18.2c0.8-0.6,1.5-1.2,2.3-1.8"/>
		</g>
		<path class="st8" d="M42.8,93.1c-0.3,0.5-0.6,0.9-0.9,1.4"/>
		<path class="st8" d="M41.6,7.2c0.2,0.1,0.4,0.2,0.7,0.3"/>
	</g>
	<path class="st8" d="M25.2,73.6c0,0.1,0,0.1,0,0.2"/>
</g>
<g id="Calque_4">
</g>
</svg>
