<?xml version="1.0" standalone="no"?>
<!DOCTYPE svg PUBLIC "-//W3C//DTD SVG 20010904//EN"
 "http://www.w3.org/TR/2001/REC-SVG-20010904/DTD/svg10.dtd">
<svg version="1.0" xmlns="http://www.w3.org/2000/svg"
 width="518.000000pt" height="518.000000pt" viewBox="0 0 518.000000 518.000000"
 preserveAspectRatio="xMidYMid meet">
<metadata>
Created by potrace 1.14, written by Peter Selinger 2001-2017
</metadata>
<g transform="translate(0.000000,518.000000) scale(0.100000,-0.100000)"
fill="#000000" stroke="none">
<path d="M3740 3622 c0 -5 24 -116 54 -248 56 -245 166 -784 166 -806 -2 -62
-179 314 -340 720 -40 100 -76 182 -81 182 -5 0 -9 -2 -9 -4 0 -8 180 -456
218 -542 22 -50 63 -137 91 -194 29 -56 50 -104 49 -105 -2 -2 -55 53 -118
122 -63 69 -173 180 -244 247 -71 66 -173 166 -227 221 -54 55 -99 93 -99 85
0 -8 116 -130 259 -270 262 -257 445 -449 437 -458 -5 -4 -234 119 -476 257
-192 109 -298 162 -305 151 -4 -6 15 -19 42 -31 26 -11 77 -37 113 -58 83 -49
449 -254 560 -315 47 -25 78 -46 70 -46 -9 0 -69 7 -135 15 -167 20 -427 43
-570 50 -66 3 -155 8 -197 11 l-77 6 33 51 c57 89 78 160 84 277 5 122 -7 191
-47 276 -73 153 -215 259 -421 315 -79 21 -110 23 -417 27 l-333 4 0 -956 0
-956 130 0 130 0 2 363 3 362 195 6 c152 5 212 11 275 28 107 28 214 80 289
140 l61 49 155 -9 c310 -17 863 -69 876 -82 7 -7 -483 -110 -606 -128 -130
-19 -350 -76 -350 -91 0 -13 19 -9 114 21 50 16 157 39 238 50 81 12 235 41
343 66 108 25 198 45 200 45 2 0 -212 -109 -476 -241 -406 -205 -505 -259
-475 -259 3 0 226 111 495 247 270 136 493 244 496 242 10 -11 -525 -567 -621
-646 -22 -18 -34 -32 -28 -32 17 -1 138 94 157 122 9 14 64 72 123 129 58 57
169 172 246 256 78 84 143 150 145 148 3 -2 -83 -175 -190 -383 l-194 -378
-651 -3 c-423 -1 -652 -6 -652 -12 0 -7 225 -10 645 -10 355 0 645 -2 645 -3
0 -2 -13 -28 -30 -58 -32 -59 -35 -69 -20 -69 6 0 25 29 42 65 l32 65 143 0
c79 0 143 -4 143 -8 0 -5 -9 -59 -20 -122 -18 -100 -20 -133 -6 -119 3 2 12
47 21 99 8 52 18 107 21 123 l6 27 123 0 c143 0 124 21 151 -167 10 -68 22
-123 26 -123 12 0 10 34 -7 135 -8 50 -18 105 -21 123 l-5 33 178 -1 c441 -3
663 0 663 10 0 6 -89 10 -248 10 l-248 0 -55 78 c-239 333 -224 307 -357 593
l-49 106 151 -156 c84 -86 205 -212 270 -280 148 -156 261 -262 270 -253 4 3
-39 52 -96 107 -115 111 -560 573 -572 593 -4 7 68 -25 161 -72 211 -105 425
-205 612 -285 171 -73 155 -68 161 -58 3 5 -17 18 -45 29 -243 103 -902 415
-892 424 1 1 214 -22 472 -52 479 -55 546 -60 530 -46 -6 5 -206 30 -445 56
-581 64 -545 55 -365 95 83 18 303 64 489 102 187 38 342 72 345 74 2 3 2 7
-1 10 -5 6 -487 -91 -780 -156 -98 -21 -181 -39 -185 -39 -5 0 80 43 187 95
225 109 209 101 365 192 66 39 157 88 203 108 73 34 101 55 72 55 -16 0 -195
-92 -305 -157 -152 -89 -562 -289 -572 -279 -6 5 505 528 636 652 41 39 70 73
65 77 -6 3 -164 -148 -352 -337 -188 -188 -342 -341 -342 -338 0 4 131 262
357 700 65 126 99 202 91 202 -8 0 -26 -26 -42 -57 -94 -197 -462 -901 -464
-893 -8 23 51 423 84 570 55 247 77 420 54 420 -5 0 -10 -16 -10 -36 0 -55
-28 -225 -61 -361 -15 -67 -40 -208 -54 -315 -14 -106 -29 -204 -32 -218 -3
-16 -25 70 -59 240 -76 375 -166 770 -176 770 -4 0 -8 -4 -8 -8z m-1260 -297
c121 -38 211 -109 251 -198 20 -43 24 -68 24 -152 0 -89 -3 -106 -28 -157 -47
-95 -140 -162 -269 -193 -35 -9 -134 -19 -220 -22 l-158 -6 0 378 0 378 173
-6 c121 -4 188 -10 227 -22z m1580 -1315 c28 -162 53 -305 55 -317 5 -23 5
-23 -116 -23 l-122 0 7 43 c4 23 14 98 21 167 12 104 46 347 73 525 6 40 6 39
19 -30 8 -38 36 -203 63 -365z m79 149 c34 -72 92 -164 185 -295 l136 -189
-157 -3 c-108 -2 -159 1 -163 9 -4 6 -10 34 -14 63 -5 41 -93 562 -111 656 -5
26 37 -55 124 -241z m-190 188 c-13 -78 -46 -327 -64 -467 -8 -63 -17 -136
-21 -162 l-7 -48 -138 0 c-77 0 -139 3 -139 6 0 7 374 734 376 731 1 -1 -2
-28 -7 -60z"/>
<path d="M665 3558 c-9 -28 -613 -1865 -619 -1885 l-7 -23 133 0 134 0 36 113
c20 61 56 172 78 245 l42 132 362 -2 361 -3 81 -240 81 -240 131 -3 c102 -2
132 0 132 10 -1 7 -146 438 -324 958 l-324 945 -146 3 c-112 2 -147 0 -151
-10z m298 -731 c76 -237 140 -442 143 -454 l6 -23 -291 0 c-160 0 -291 2 -291
5 0 8 272 889 277 898 2 4 7 7 11 7 4 0 69 -195 145 -433z"/>
<path d="M3055 1717 c-4 -10 -5 -21 -1 -24 10 -10 18 4 13 24 -4 17 -4 17 -12
0z"/>
<path d="M4520 1590 c0 -5 5 -10 10 -10 6 0 10 5 10 10 0 6 -4 10 -10 10 -5 0
-10 -4 -10 -10z"/>
</g>
</svg>
