<?xml version="1.0" encoding="utf-8"?>
<!-- Generator: Adobe Illustrator 23.0.3, SVG Export Plug-In . SVG Version: 6.00 Build 0)  -->
<svg version="1.1" id="Calque_1" xmlns="http://www.w3.org/2000/svg" xmlns:xlink="http://www.w3.org/1999/xlink" x="0px" y="0px"
	 viewBox="0 0 1297.4 212.7" style="enable-background:new 0 0 1297.4 212.7;" xml:space="preserve">
<style type="text/css">
	.st0{fill:none;stroke:#FFFFFF;stroke-miterlimit:10;}
	.st1{fill:none;stroke:#29E76B;stroke-miterlimit:10;}
	.st2{fill:none;stroke:#000000;stroke-width:0.6075;stroke-miterlimit:10;}
	.st3{fill:none;stroke:#000000;stroke-width:0.5875;stroke-miterlimit:10;}
	.st4{fill:none;stroke:#000000;stroke-width:0.5855;stroke-miterlimit:10;}
	.st5{fill:none;stroke:#000000;stroke-width:0.6;stroke-miterlimit:10;}
	.st6{fill:none;stroke:#000000;stroke-width:0.5972;stroke-miterlimit:10;}
	.st7{fill:none;stroke:#000000;stroke-width:0.6309;stroke-miterlimit:10;}
	.st8{fill:none;stroke:#000000;stroke-width:0.5805;stroke-miterlimit:10;}
	.st9{fill:none;stroke:#000000;stroke-width:0.5158;stroke-miterlimit:10;}
	.st10{fill:none;stroke:#000000;stroke-width:0.4909;stroke-miterlimit:10;}
	.st11{fill:none;stroke:#000000;stroke-width:0.4756;stroke-miterlimit:10;}
	.st12{fill:none;stroke:#000000;stroke-width:0.5049;stroke-miterlimit:10;}
	.st13{fill:none;stroke:#000000;stroke-width:0.4805;stroke-miterlimit:10;}
	.st14{fill:none;stroke:#000000;stroke-width:0.4859;stroke-miterlimit:10;}
	.st15{fill:none;stroke:#000000;stroke-width:0.5491;stroke-miterlimit:10;}
	.st16{fill:none;stroke:#000000;stroke-width:1.2;stroke-miterlimit:10;}
	.st17{fill:none;stroke:#000000;stroke-width:1.2202;stroke-miterlimit:10;}
	.st18{fill:#29E76B;}
</style>
<g>
	<g>
		<g>
			<g>
				<g>
					<path d="M24.8,197H0V6.2h22.2l2.6,53.6V197z"/>
					<path d="M52.8,71H34.1c11.6-9.2,18.2-16.6,23.2-25.4c1.1-1.8,0.3-3.7-2.1-3.7c-10.3,0-18-7.4-18-18c0-10.3,8.5-17.7,18.8-17.7
						c9.8,0,18,6.3,18.8,17.7c0.3,4.5,0,8.5-1.1,12.2C70.8,47.4,63.1,60.4,52.8,71z"/>
					<path d="M96.4,148.6L81.1,197H54.4L117.3,6.2h29.1L211.6,197h-26.7l-16.1-48.3H96.4z M161.7,127.2l-29.1-90.9H131l-28,90.9
						H161.7z"/>
					<path d="M180.4,64.4h26.7l36.5,108.3h1.6l33.3-108.3h25.4L259.4,197H229L180.4,64.4z"/>
					<path d="M384.1,197l0.5-6.1c0.3-4,0.5-7.7,0.5-10.8h-1.3c-11.4,11.9-26.9,20.3-44.6,20.3c-26.2,0-41.5-17.2-41.5-40.4
						c0-24.6,18.2-41.7,46.5-42.5c15.9-0.3,28.5,2.4,40.2,5.8V109c0-19-10.3-29.6-29.3-29.6c-19,0-28.8,11.1-28,23.5h-26.7
						c5-23.2,23.5-42.3,54.7-42.3c29.9,0,52.6,15.3,52.6,48.3v66c0,6.1-0.3,14.8,1.6,21.9H384.1z M383.9,138.3
						c-10.3-2.1-22.7-4-34.6-3.7c-17.2,0.3-27.2,10-27.2,24c0,14.5,8.7,22.7,25.6,22.7c15.9,0,29.9-12.4,36.2-19.6V138.3z"/>
					<path d="M420.1,87.1c0-6.6-0.3-15.1-1.3-22.7h25.6v22.7h1.6c3.4-6.1,18-25.4,42.8-25.4c15.9,0,43.9,8.7,43.9,48.9V197h-25.4
						v-86.9C507.2,91.8,499,81,484,81c-18.5,0-33.3,16.9-38.8,38.8V197h-25.1V87.1z"/>
					<path d="M535,64.4h21.7l4.5-39.6h19.5v39.6h37.5v19h-37.5v74.8c0,11.9,5.8,19,18.2,19c7.4,0,15.3-2.1,19.3-4v19.6
						c-4.5,3.2-12.9,6.6-22.2,6.6c-25.6,0-39.9-15.3-39.9-40.9v-75H535V64.4z"/>
					<path d="M680,6.2h49.7c39.1,0,72.4,19.6,72.4,58.4c0,41.2-35.7,60-75,60h-20.6V197H680V6.2z M706.2,102.4l20.9-0.3
						c17.7,0,47.3-6.3,47.3-37.5c0-29.6-28.8-36.7-44.1-36.7l-24-0.3V102.4z"/>
					<path d="M1020,157.6c0,10.8,7.4,24,26.4,24c14.8,0,24.8-7.7,24.8-19.5c0-11.4-9.5-17.2-28.5-22.2
						c-27.7-7.1-47.3-18.5-47.3-40.4c0-24,20.1-38.3,48.6-38.3c24.8,0,46.2,14.3,47.6,39.6h-25.1c-0.8-13.5-10.8-21.4-23.2-21.4
						c-10.8,0-23.2,4.8-23.2,18.2c0,11.4,10.6,16.9,30.4,21.4c28.5,6.6,46.5,18.5,46.5,40.7c0,25.4-22.5,40.7-51.5,40.7
						c-24.3,0-49.7-12.9-51-42.8H1020z"/>
					<path d="M1095,64.4h21.7l4.5-39.6h19.6v39.6h37.5v19h-37.5v74.8c0,11.9,5.8,19,18.2,19c7.4,0,15.3-2.1,19.3-4v19.6
						c-4.5,3.2-12.9,6.6-22.2,6.6c-25.6,0-39.9-15.3-39.9-40.9v-75H1095V64.4z"/>
					<path d="M1202.3,134.1c0,27.5,13.5,47.6,38.8,47.6c16.6,0,28.5-10.6,31.7-25.6h24.3c-2.9,21.9-22.7,44.9-57.3,44.9
						c-37.3,0-62.1-28.3-62.1-71.3c0-37,23.2-68.7,60.5-68.7c48.3,0,62.1,42,58.7,73.2H1202.3z M1272.3,115.6
						c0-12.7-6.6-36.7-33.6-36.7c-18,0-33,12.9-35.4,37.3L1272.3,115.6z"/>
				</g>
			</g>
		</g>
	</g>
	<g>
		<g>
			<g>
				<g>
					<line class="st16" x1="721.4" y1="195.5" x2="993.7" y2="195.5"/>
				</g>
			</g>
		</g>
		<g>
			<path class="st17" d="M902.3,0.1c-7.4,70-14.9,140.1-22.3,210.1"/>
			<path class="st17" d="M793,95.5c40,5.8,81.3,13,121.3,18.8c26.6,3.9,52.9,15.4,78.3,23.1"/>
			<path class="st17" d="M961.3,32.5c-22.2,23.6-45.8,49.9-67.9,73.8c-23.8,25.9-45.1,55.6-73.3,75.4"/>
			<path class="st17" d="M820.4,32.9C874.6,83,923,140.5,961.7,201"/>
			<path class="st17" d="M937.5,7.4c-16.1,38.9-33.1,75.7-53.8,111.8c-15.4,26.9-24.8,53.2-39.5,84.2"/>
			<path class="st17" d="M801,61.2c63.2,33.6,127.7,68.6,190.9,102.2"/>
			<path class="st17" d="M991.6,89.8c-69.4,10.8-133.6,25.6-205.2,44.8"/>
			<path class="st17" d="M856.5,23.5c23.9,63.5,50.4,126.2,79.2,187.9"/>
			<path class="st17" d="M911.8,212.6C896.3,142.3,881.7,71.8,868,1.1"/>
			<path class="st17" d="M986.4,47.6c-59.2,43-123.9,81.8-189.7,109.4"/>
		</g>
	</g>
</g>
</svg>
