<?xml version="1.0" encoding="utf-8"?>
<!-- Generator: Adobe Illustrator 23.0.3, SVG Export Plug-In . SVG Version: 6.00 Build 0)  -->
<svg version="1.1" xmlns="http://www.w3.org/2000/svg" xmlns:xlink="http://www.w3.org/1999/xlink" x="0px" y="0px"
	 viewBox="0 0 120 120" style="enable-background:new 0 0 120 120;" xml:space="preserve">
<style type="text/css">
	.st0{fill:#FFFFFF;}
	.st1{fill:none;stroke:#1D1D1B;stroke-width:0.7;stroke-miterlimit:1;}
	.st2{fill:none;stroke:#1D1D1B;stroke-width:0.7;stroke-miterlimit:10;}
	.st3{fill:#1D1D1B;stroke:#1D1D1B;stroke-width:0.7;stroke-miterlimit:1;}
</style>
<g id="Calque_2">
</g>
<g id="Calque_1">
	<rect class="st0" width="120" height="120"/>
	<g>
		<rect class="st0" width="120" height="120"/>
		<g>
			<g>
				<line class="st1" x1="15" y1="91.3" x2="105" y2="91.3"/>
			</g>
		</g>
		<g>
			<path class="st1" d="M84.9,17.5c-6.6,3.6-13.5-4.5-8.6-10.7c1.4-1.7,3.5-2.3,5.5-2.2c2.8,0.2,6,2.3,6.5,5.4
				c0.1,0.4,0.1,0.7,0.1,1.1c0,0.5,0,1-0.1,1.5C88.1,14.7,86.7,16.5,84.9,17.5z"/>
			<path class="st1" d="M42.6,90.2c-2.2,1.2-4.9,1.3-7-0.4c-3-2.5-4-6.8-1.4-10.1c1.3-1.7,3.4-2.2,5.4-2.1c2.8,0.2,5.9,2.2,6.4,5.2
				c0.1,0.3,0.1,0.7,0.1,1c0,0.5,0,1-0.1,1.4C45.8,87.5,44.4,89.2,42.6,90.2z"/>
			<path class="st1" d="M78.4,90.3c-2.1-1.3-3.7-3.7-3.4-6.3c0.6-5.9,9.1-8.4,11.9-3.1c1.3,2.5,1.3,6.4-0.8,8.4
				c-0.2,0.2-0.5,0.4-0.8,0.6c-0.4,0.3-0.8,0.5-1.2,0.7C82.3,91.6,80.1,91.3,78.4,90.3z"/>
			<path class="st1" d="M64.3,53.1c-3.1,1.8-8.7,0.4-9.6-3.7c-1.1-5,2.6-8.8,6.8-8.6c2.6,0.2,5.5,2.2,5.9,5.1c0.1,0.3,0.1,0.7,0.1,1
				c0,0.5,0,0.9-0.1,1.4C67.3,50.5,66,52.2,64.3,53.1z"/>
			<path class="st1" d="M23.1,54.3c-2.1,1.2-4.7,1.2-6.7-0.4c-2.5-2.1-3.5-7.1-1.4-9.8c1.3-1.6,3.2-2.2,5.1-2.1
				c2.6,0.2,5.6,2.2,6.1,5.1c0.1,0.3,0.1,0.7,0.1,1c0,0.5,0,0.9-0.1,1.4C26.1,51.7,24.7,53.4,23.1,54.3z"/>
			<path class="st1" d="M104.6,54.1c-2.1,1.2-4.9,1.2-6.9-0.4c-2.6-2.1-3.6-7.1-1.4-9.8c1.3-1.6,3.3-2.2,5.3-2.1
				c2.7,0.2,5.8,2.2,6.3,5.1c0.1,0.3,0.1,0.7,0.1,1c0,0.5,0,0.9-0.1,1.4C107.7,51.5,106.4,53.2,104.6,54.1z"/>
			<path class="st1" d="M43.2,18.4c-2.3,1.3-5.3,1.4-7.5-0.4c-2.8-2.3-3.9-7.9-1.5-10.9c1.4-1.8,3.6-2.4,5.8-2.3
				c3,0.2,6.3,2.4,6.9,5.7c0.1,0.4,0.1,0.7,0.1,1.1c0,0.5,0,1-0.1,1.5C46.6,15.4,45.1,17.3,43.2,18.4z"/>
			<path class="st3" d="M98.4,54.1c-1.1,2.5-2.3,5-3.5,7.4c-0.9,1.8-2.1,3.5-3,5.3c-1.2,2.3-2.3,4.6-3.6,6.9c-1,1.8-2,3.6-2.9,5.4"
				/>
			<path class="st1" d="M85.7,17.1c1.3,2,2.4,4,3.5,6.1c0.7,1.3,1.3,2.8,2,4.2c0.7,1.5,1.8,2.9,2.6,4.4c1.8,3.4,3.2,7,5,10.4"/>
			<path class="st1" d="M47,10.7c6.1,0.1,12.2,0.5,18.3,0.5c3.1,0,6.2-0.1,9.2-0.2"/>
			<path class="st1" d="M35.5,17.8c-2.2,3.4-3.8,7.2-5.6,10.8c-1.8,3.4-4,6.5-5.8,9.8c-0.7,1.3-1.5,2.6-2,4"/>
			<path class="st1" d="M22.7,54.5c1.4,2.2,2.7,4.6,3.9,7c0.7,1.4,1.4,2.7,2,4.1c1.9,4.4,4.1,8.8,6.4,13.1"/>
			<path class="st1" d="M26.1,48.8c1.3-0.1,1.4,0.2,2.7,0.1c0.7,0,1.4-0.1,2.1-0.1c7.7-0.5,15.7,0.2,23.5,0"/>
			<path class="st1" d="M43.7,18c2,4,4.6,7.5,6.5,11.5c1.9,4.2,4.9,8.3,7.4,12.1"/>
			<path class="st1" d="M78.4,17.8c-0.9,2.2-1.3,2.9-2.3,5c-2,4-4,7.9-6.1,11.9c-1.4,2.7-2.8,5.3-4.1,8"/>
			<path class="st1" d="M67.6,48.9c7.2-0.3,20.1-0.1,27.3-0.2"/>
			<path class="st1" d="M64.9,52.6c1.8,3.4,3.6,6.8,5.2,10.3c1.3,2.9,2.8,5.7,4.5,8.3c1.5,2.4,2.6,5,3.8,7.6"/>
			<path class="st1" d="M56.5,54.5c-0.3-0.9-1.6,0.7-1.8,1c-0.9,1.3-1.4,2.3-2.2,3.7c-1.4,2.2-2.7,4.4-4,6.6
				c-2.3,3.9-4.7,7.8-6.5,12"/>
			<path class="st1" d="M46.3,84c2,0,4,0.2,6,0.1c0.2,0,0.5,0,0.7,0c2.2-0.1,4.5,0.1,6.7,0.2c3.7,0.3,11.5,0,15.1,0"/>
			<path class="st1" d="M89.7,86.4c-0.1,0.1-0.2,0.3-0.1,0.4"/>
		</g>
		<path class="st1" d="M49.4,92.1c0.3,0.1,0.5,0.3,0.8,0.4"/>
		<path class="st1" d="M37,96.1c0.3,0,0.5,0,0.8,0"/>
		<path class="st1" d="M11.1,96.9c0.4,0.2,0.6,0.8,0.3,1.2"/>
	</g>
</g>
</svg>
