<?xml version="1.0" encoding="utf-8"?>
<!-- Generator: Adobe Illustrator 23.0.3, SVG Export Plug-In . SVG Version: 6.00 Build 0)  -->
<svg version="1.1" xmlns="http://www.w3.org/2000/svg" xmlns:xlink="http://www.w3.org/1999/xlink" x="0px" y="0px"
	 viewBox="0 0 120 120" style="enable-background:new 0 0 120 120;" xml:space="preserve">
<style type="text/css">
	.st0{fill:#FFFFFF;}
	.st1{fill:none;stroke:#1D1D1B;stroke-width:0.7;stroke-miterlimit:1;}
	.st2{fill:none;stroke:#1D1D1B;stroke-width:0.7;stroke-miterlimit:10;}
	.st3{fill:#1D1D1B;stroke:#1D1D1B;stroke-width:0.7;stroke-miterlimit:1;}
</style>
<g id="Calque_2">
</g>
<g id="Calque_1">
	<g>
		<rect class="st0" width="120" height="120"/>
		<g>
			<g>
				<line class="st1" x1="15" y1="91.3" x2="105" y2="91.3"/>
			</g>
		</g>
		<g>
			<g>
				<path class="st1" d="M45.3,44.1c1.4-0.3,13.7-0.6,15.4-0.6c6.4,0,12.7,0,19.1,0c1.7,0,3.6,0.3,5.4,0.2c1.9-0.1,3.6-0.3,5.5-0.3
					c1.9,0,3.7,0,5.6,0c2.5,0,5,0,7.5,0.1"/>
				<path class="st1" d="M54,57.3c0.2,2.8,0.4,5.6,0.5,8.4c0.3,5.8,0.6,11.5,1,17.3c0.1,2.3,0.3,4.5,0.4,6.8"/>
				<path class="st1" d="M23.1,25.5c0.6,5.9,1.7,15.3,2,21.3c0.1,3.6,0.7,8.9,4.7,10.3c1.9,0.7,4.3,0,6.4,0c2,0,3.9,0.2,5.9,0.3
					c3.4,0.1,6.8-0.2,10.3-0.1c4.7,0.2,6-0.5,8.5,4.4"/>
				<path class="st1" d="M77.6,43.5c0,2.5,0,5.1,0.1,7.6c0,4.1,0.4,7.8,0.4,11.9c0,11.5-0.1,23.1-1.2,34.6"/>
				<g>
					<path class="st1" d="M77.2,23c-1.9,5-3.1,10.3-5,15.3c-0.9,2.3-1.2,1.6-4.5,1.9c-5.1,0.4-10.8,1.2-16,0.3"/>
				</g>
				<path class="st1" d="M33.4,57.3c-3,0.6-4.3,2.8-4.7,6.1c-0.3,3.2-0.9,12.6-1.1,15.8c0,1.1-0.3,2.3-0.2,3.4
					c0,0.9,0.1,1.7,0.1,2.6c-0.1,2-0.2,4-0.3,6"/>
			</g>
			<path class="st1" d="M64.6,96c0.1,0.1,0.3,0.3,0.4,0.4"/>
			<path class="st1" d="M74.3,44.9c0.1,0.3,0.3,0.5,0.4,0.8"/>
			<path class="st1" d="M20.3,104c0.1,0.1,0.3,0.3,0.4,0.4"/>
			<path class="st1" d="M45.4,97.2c-0.1,0.4-0.3,0.8-0.4,1.2"/>
			<path class="st1" d="M86.5,93.6c0,0.3,0,0.5,0,0.8"/>
		</g>
	</g>
</g>
</svg>
